<?xml version="1.0" encoding="utf-8"?>
<!-- Generator: Adobe Illustrator 19.2.0, SVG Export Plug-In . SVG Version: 6.00 Build 0)  -->
<svg version="1.1" id="Layer_1" xmlns="http://www.w3.org/2000/svg" xmlns:xlink="http://www.w3.org/1999/xlink" x="0px" y="0px"
	 viewBox="0 0 368 257" style="enable-background:new 0 0 368 257;" xml:space="preserve">
<style type="text/css">
	.st0{fill:#FFFFFF;}
	.st1{fill:#71D5D4;}
	.st2{fill:#60ADA9;}
</style>
<g>
	<path class="st0" d="M41.2,198.7c0,8.5-4.7,8.7-9.6,8.7H7v4.2c0,8.8,6.9,14.3,16.6,14.3c8.7,0,10.7-4.4,13.1-4.4c1.8,0,3,2.1,3,3.4
		c0,2.6-6.1,7.3-16.3,7.3C9.6,232.3,0,223.9,0,211.4V199c0-11,9.3-20.3,20.8-20.3C31.7,178.8,41.2,187.1,41.2,198.7z M28.7,202.5
		c4.4,0,5.5-0.7,5.5-3.8c0-7-5.5-13.9-13.6-13.9c-7.6,0-13.6,6-13.6,13.4v4.3H28.7z"/>
	<path class="st0" d="M73.6,185.5c-7.3,0-14.6,6-14.6,16v27.2c0,1.4-1.5,2.9-3.6,2.9c-2,0-3.4-1.4-3.4-2.9v-46.5
		c0-1.5,1.6-2.6,3.6-2.6c1.9,0,3.4,1.1,3.4,2.6v5.4c2-4.4,7.5-9,14.6-9h3.9c1.5,0,2.9,1.7,2.9,3.5c0,1.8-1.3,3.5-2.9,3.5H73.6z"/>
	<path class="st0" d="M96,150.2v37c2-4.3,7.2-8.4,14.5-8.4c10.8,0,19.5,9.2,19.5,20.6v12c0,10.9-9.4,20.9-19.7,20.9
		c-6.8,0-12.3-4-15.3-8.5v4.8c0,1.4-1.6,2.9-3.4,2.9c-2,0-3.6-1.4-3.6-2.9v-78.4c0-1.5,2-2.6,3.9-2.6C94,147.6,96,148.7,96,150.2z
		 M123,199.4c0-7-6.1-14-13.7-14c-6.6,0-13.3,5.2-13.3,14v15.4c0,3.3,5.7,10.9,13.4,10.9c7.4,0,13.6-7,13.6-14.3V199.4z"/>
	<path class="st0" d="M163.3,185.5c-7.3,0-14.3,6-14.3,16v27.2c0,1.4-1.5,2.9-3.6,2.9c-2,0-3.4-1.4-3.4-2.9v-46.5
		c0-1.5,1.6-2.6,3.6-2.6c1.9,0,3.4,1.1,3.4,2.6v5.4c2-4.4,7.1-9,14.3-9h3.9c1.5,0,2.9,1.7,2.9,3.5c0,1.8-1.3,3.5-2.9,3.5H163.3z"/>
	<path class="st0" d="M186.3,159.4c0,2.4-2.1,4.6-4.7,4.6c-2.7,0-4.9-2.2-4.9-4.6s2.2-4.5,4.9-4.5
		C184.2,154.9,186.3,157,186.3,159.4z M185,182.1v46.5c0,1.4-1.6,2.9-3.6,2.9c-2,0-3.4-1.4-3.4-2.9v-46.5c0-1.5,1.5-2.6,3.4-2.6
		C183.4,179.5,185,180.6,185,182.1z"/>
	<path class="st0" d="M238,150.2v78.4c0,1.4-1,2.9-3,2.9c-1.9,0-3-1.4-3-2.9v-4.8c-3,4.5-8.5,8.5-15.3,8.5
		c-10.4,0-19.7-10-19.7-20.9v-12c0-11.3,8.8-20.6,19.6-20.6c7.3,0,12.4,4.1,14.4,8.4v-37c0-1.5,1.6-2.6,3.7-2.6
		C236.6,147.6,238,148.7,238,150.2z M204,211.4c0,7.3,6.2,14.3,13.6,14.3c7.7,0,13.4-7.6,13.4-10.9v-15.4c0-8.8-6.7-14-13.3-14
		c-7.6,0-13.7,6.9-13.7,14V211.4z"/>
	<path class="st0" d="M261.2,217.4c-1.7,0.9-3.4,2-3.4,4.3c0,9.9,34.2-0.3,34.2,19.7c0,10.3-9,15.6-21.6,15.6
		c-12.9,0-22.3-5.5-22.3-14.6c0-6.4,4.6-10.1,9.3-12c-3.5-1.2-6-3.2-6-7.6c0-4.1,2.3-6.2,5.6-7.9c-3.9-3.2-6-8.1-6-13.9v-4.2
		c0-10.6,7.4-18,18.8-18c5.2,0,9.6,1.8,12.8,4.6c2.2-4.4,5.3-6.9,7.8-6.9c2.2,0,3.3,1.5,3.3,2.9c0,1.3-0.9,2.2-1.9,2.4
		c-1.8,0.3-4.1,1.3-6.1,4.7c2.1,2.7,3.2,6.5,3.2,10.3v4.2c0,10.4-8,18.3-19.2,18.3C266.7,219.3,263.7,218.6,261.2,217.4z
		 M264.8,231.9c-5.2,1.6-9.8,4.5-9.8,9.8c0,5.9,5.8,10,15.3,10c9.2,0,14.7-4,14.7-10.1C285,232.5,271.7,232.9,264.8,231.9z
		 M282,196.8c0-7.1-4.4-12.6-12-12.6c-7.6,0-12,5.5-12,12.6v4.1c0,7.4,4.5,13,12.1,13c7.4,0,11.9-5.5,11.9-12.9V196.8z"/>
	<path class="st0" d="M341.6,198.7c0,8.5-4.7,8.7-9.6,8.7h-25v4.2c0,8.8,7.1,14.3,16.8,14.3c8.7,0,10.8-4.4,13.2-4.4
		c1.8,0,3.1,2.1,3.1,3.4c0,2.6-6.3,7.3-16.5,7.3c-13.9,0-23.6-8.4-23.6-20.9V199c0-11,9.5-20.3,21-20.3
		C331.9,178.8,341.6,187.1,341.6,198.7z M329.1,202.5c4.4,0,5.5-0.7,5.5-3.8c0-7-5.7-13.9-13.8-13.9c-7.6,0-13.8,6-13.8,13.4v4.3
		H329.1z"/>
</g>
<g>
	<g>
		<g>
			<g>
				<path class="st1" d="M269.2,75.1c-6.4,1.7-13-2.1-14.7-8.5s2.1-13,8.5-14.7L269.2,75.1z"/>
			</g>
			<path class="st2" d="M269.2,75.1c6.4-1.7,10.2-8.3,8.5-14.7c-1.7-6.4-8.3-10.2-14.7-8.5L269.2,75.1z"/>
		</g>
		<g>
			<g>
				<path class="st1" d="M261,87.1c-6,2.8-8.6,9.9-5.8,15.9s10,8.6,15.9,5.8L261,87.1z"/>
			</g>
			<path class="st2" d="M261,87.1c6-2.8,13.1-0.2,15.9,5.8c2.8,6,0.2,13.1-5.8,15.9L261,87.1z"/>
		</g>
		<g>
			<g>
				<path class="st1" d="M266.1,41.2c-6.2,0-12-5.4-12-12c0-6.6,5.8-12,12-12V41.2z"/>
			</g>
			<path class="st2" d="M266.1,41.2c7.3,0,12-5.4,12-12c0-6.6-4.7-12-12-12V41.2z"/>
		</g>
		<g>
			<g>
				<path class="st1" d="M272.1,142.7c-5.7,3.3-13.1,1.3-16.4-4.4c-3.3-5.7-1.3-13.1,4.4-16.4L272.1,142.7z"/>
			</g>
			<path class="st2" d="M272.1,142.7c5.7-3.3,7.7-10.6,4.4-16.4c-3.3-5.7-10.7-7.7-16.4-4.4L272.1,142.7z"/>
		</g>
	</g>
	<g>
		<g>
			<g>
				<path class="st1" d="M331.1,74.4c-6,2.8-13.1,0.2-15.9-5.8c-2.8-6-0.2-13.1,5.8-15.9L331.1,74.4z"/>
			</g>
			<path class="st2" d="M331.1,74.4c6-2.8,8.6-9.9,5.8-15.9s-10-8.6-15.9-5.8L331.1,74.4z"/>
		</g>
		<g>
			<g>
				<path class="st1" d="M320,87.6c-5.7,3.3-7.7,10.6-4.4,16.4c3.3,5.7,10.7,7.7,16.4,4.4L320,87.6z"/>
			</g>
			<path class="st2" d="M320,87.6c5.7-3.3,13.1-1.3,16.4,4.4c3.3,5.7,1.3,13.1-4.4,16.4L320,87.6z"/>
		</g>
		<g>
			<g>
				<path class="st1" d="M329.1,40.7c-6.4,1.7-13-2.1-14.7-8.5c-1.7-6.4,2.1-13,8.5-14.7L329.1,40.7z"/>
			</g>
			<path class="st2" d="M329.1,40.7c6.4-1.7,10.2-8.3,8.5-14.7c-1.7-6.4-8.3-10.2-14.7-8.5L329.1,40.7z"/>
		</g>
		<g>
			<g>
				<path class="st1" d="M333.7,141.5c-5.1,4.2-12.6,3.6-16.9-1.5c-4.3-5.1-3.6-12.7,1.5-16.9L333.7,141.5z"/>
			</g>
			<path class="st2" d="M333.7,141.5c5.1-4.2,5.7-11.8,1.5-16.9c-4.3-5.1-11.8-5.7-16.9-1.5L333.7,141.5z"/>
		</g>
	</g>
	<g>
		<g>
			<path class="st2" d="M288.4,140.3c5.1-4.2,12.6-3.6,16.9,1.5c4.3,5.1,3.6,12.7-1.5,16.9L288.4,140.3z"/>
			<path class="st1" d="M288.4,140.3c-5.1,4.2-5.7,11.8-1.5,16.9c4.3,5.1,11.8,5.7,16.9,1.5L288.4,140.3z"/>
		</g>
		<g>
			<g>
				<path class="st1" d="M299.2,57.9c-6.4,1.7-13-2.1-14.7-8.5c-1.7-6.4,2.1-13,8.5-14.7L299.2,57.9z"/>
			</g>
			<path class="st2" d="M299.2,57.9c6.4-1.7,10.2-8.3,8.5-14.7c-1.7-6.4-8.3-10.2-14.7-8.5L299.2,57.9z"/>
		</g>
		<g>
			<g>
				<path class="st1" d="M290.1,104.8c-5.7,3.3-7.7,10.6-4.4,16.4c3.3,5.7,10.7,7.7,16.4,4.4L290.1,104.8z"/>
			</g>
			<path class="st2" d="M290.1,104.8c5.7-3.3,13.1-1.3,16.4,4.4c3.3,5.7,1.3,13.1-4.4,16.4L290.1,104.8z"/>
		</g>
		<g>
			<g>
				<path class="st1" d="M296.1,24c-6.2,0-12-5.4-12-12c0-6.6,5.8-12,12-12V24z"/>
			</g>
			<path class="st2" d="M296.1,24c7.3,0,12-5.4,12-12c0-6.6-4.7-12-12-12V24z"/>
		</g>
		<g>
			<g>
				<path class="st1" d="M292,69.5c-6.2,2.3-9.4,9.1-7.2,15.4c2.3,6.2,9.2,9.4,15.4,7.2L292,69.5z"/>
			</g>
			<path class="st2" d="M292,69.5c6.2-2.3,13.1,0.9,15.4,7.2c2.3,6.2-1,13.1-7.2,15.4L292,69.5z"/>
		</g>
	</g>
	<g>
		<g>
			<g>
				<path class="st1" d="M236.1,58.3c-6.2,0-12-5.4-12-12s5.8-12,12-12V58.3z"/>
			</g>
			<path class="st2" d="M236.1,58.3c7.3,0,12-5.4,12-12s-4.7-12-12-12V58.3z"/>
		</g>
		<g>
			<g>
				<path class="st1" d="M236.1,92.7c-6.2,0-12-5.4-12-12c0-6.6,5.8-12,12-12V92.7z"/>
			</g>
			<path class="st2" d="M236.1,92.7c7.3,0,12-5.4,12-12c0-6.6-4.7-12-12-12V92.7z"/>
		</g>
		<g>
			<g>
				<path class="st1" d="M239.2,126.7c-6.4,1.7-13-2.1-14.7-8.5c-1.7-6.4,2.1-13,8.5-14.7L239.2,126.7z"/>
			</g>
			<path class="st2" d="M239.2,126.7c6.4-1.7,10.2-8.3,8.5-14.7c-1.7-6.4-8.3-10.2-14.7-8.5L239.2,126.7z"/>
		</g>
	</g>
	<g>
		<g>
			<g>
				<path class="st1" d="M362,56.7c-5.7,3.3-13.1,1.3-16.4-4.4c-3.3-5.7-1.3-13.1,4.4-16.4L362,56.7z"/>
			</g>
			<path class="st2" d="M362,56.7c5.7-3.3,7.7-10.6,4.4-16.4c-3.3-5.7-10.7-7.7-16.4-4.4L362,56.7z"/>
		</g>
		<g>
			<g>
				<path class="st1" d="M363.7,89.9c-5.1,4.2-12.6,3.6-16.9-1.5c-4.3-5.1-3.6-12.7,1.5-16.9L363.7,89.9z"/>
			</g>
			<path class="st2" d="M363.7,89.9c5.1-4.2,5.7-11.8,1.5-16.9s-11.8-5.7-16.9-1.5L363.7,89.9z"/>
		</g>
		<g>
			<g>
				<path class="st1" d="M365.2,122.9c-4.3,5.1-11.9,5.8-16.9,1.5c-5.1-4.3-5.7-11.9-1.5-16.9L365.2,122.9z"/>
			</g>
			<path class="st2" d="M365.2,122.9c4.3-5.1,3.6-12.7-1.5-16.9c-5.1-4.3-12.7-3.6-16.9,1.5L365.2,122.9z"/>
		</g>
	</g>
</g>
</svg>
